<svg id="logo" xmlns="http://www.w3.org/2000/svg" viewBox="0 0 300 82"><defs><style>.cls-1{fill:#fff;}</style></defs><title>Tavola disegno 1</title><path class="cls-1" d="M297.82,26.8a22.3,22.3,0,0,0-6.33-8.59A27.59,27.59,0,0,0,281.29,13a49.93,49.93,0,0,0-13.78-1.73H252.29v44l-16.69-44H222.44L211.91,39.06c0-.11,0-.22,0-.33a28,28,0,0,0-2.27-11.19A28.7,28.7,0,0,0,194.31,12.2a28.81,28.81,0,0,0-22.37,0A28.79,28.79,0,0,0,156.6,27.54a18.89,18.89,0,0,0-6.46-10.73,22.7,22.7,0,0,0-7.78-4.11,32.66,32.66,0,0,0-9.74-1.4H113.7V66.16h17.52V52.26l15.68,26.5,12.24,3.09L162.2,69.7,149.72,48.07a18.13,18.13,0,0,0,3.71-3.62,19.91,19.91,0,0,0,1.17-1.86,27.59,27.59,0,0,0,2,7.32,28.77,28.77,0,0,0,15.34,15.35,28.81,28.81,0,0,0,22.37,0,29.25,29.25,0,0,0,9.18-6.17c.49-.49.95-1,1.4-1.53l-3.26,8.6H218.9l1.81-4.93h16.62l1.81,4.93h28.37a49.12,49.12,0,0,0,13.78-1.77,28.11,28.11,0,0,0,10.2-5.22,22.26,22.26,0,0,0,6.33-8.6A30.23,30.23,0,0,0,300,38.69,30.31,30.31,0,0,0,297.82,26.8ZM137.43,36.88a9.66,9.66,0,0,1-5.31,1.4h-.9V26.1h.9a9.66,9.66,0,0,1,5.31,1.4,5.16,5.16,0,0,1,2.18,4.69A5.15,5.15,0,0,1,137.43,36.88Zm56.31,6.33a11.58,11.58,0,0,1-6.13,6.13,11.6,11.6,0,0,1-9,0A11.59,11.59,0,0,1,175,46.87a11.42,11.42,0,0,1-2.47-3.66,11.48,11.48,0,0,1,0-9,11.58,11.58,0,0,1,6.13-6.13,11.48,11.48,0,0,1,9,0,11.42,11.42,0,0,1,3.66,2.47,11.59,11.59,0,0,1,2.47,3.66,11.6,11.6,0,0,1,0,9Zm31.58,5.92,3.7-9.62,3.7,9.62Zm54-1.52q-3.36,2.93-9.54,2.92V26.93q6.18,0,9.54,2.87t3.38,8.89Q282.73,44.69,279.35,47.61Z"/><polygon class="cls-1" points="87.98 51.77 87.98 45.43 102.54 45.43 102.54 31.78 87.98 31.78 87.98 25.69 109.92 25.69 109.92 11.3 74.52 11.3 70.46 11.3 55.93 11.3 49.6 30.46 43.26 11.3 31.26 11.3 24.92 30.46 16.77 5.77 5.62 0.15 0 11.3 18.09 66.16 31.75 66.16 37.26 49.55 42.77 66.16 56.42 66.16 70.46 23.61 70.46 66.16 110.49 66.16 110.49 51.77 87.98 51.77"/></svg>